<svg xmlns="http://www.w3.org/2000/svg" viewBox="0 0 872.96 491.04"><rect width="872.96" height="491.04" fill="#FCFAFA" id="bg" class="bg"/><g><g transform="translate(87.30,&#xA;                                0.00) rotate(0, 43.648, 43.648)"><svg id="Layer_1" data-name="Layer 1" xmlns="http://www.w3.org/2000/svg" viewBox="0 0 100 100" width="87.296" height="87.296"><path d="M50,100h0A50,50,0,0,1,0,50V0H100V50A50,50,0,0,1,50,100Z" fill="#7678ED"/></svg></g><g transform="translate(0.00,&#xA;                                87.30) rotate(180, 43.648, 43.648)"><svg id="Layer_1" data-name="Layer 1" xmlns="http://www.w3.org/2000/svg" viewBox="0 0 100 100" width="87.296" height="87.296"><path d="M50,100a50,50,0,1,1,50-50v50Z" fill="#F7B801"/></svg></g><g transform="translate(87.30,&#xA;                                87.30) rotate(270, 43.648, 43.648)"><svg id="Layer_1" data-name="Layer 1" xmlns="http://www.w3.org/2000/svg" viewBox="0 0 100 100" width="87.296" height="87.296"><circle cx="50" cy="50" r="50" fill="#F18701"/></svg></g><g transform="translate(174.59,&#xA;                                87.30) rotate(270, 43.648, 43.648)"><svg id="Layer_1" data-name="Layer 1" xmlns="http://www.w3.org/2000/svg" viewBox="0 0 100 100" width="87.296" height="87.296"><path d="M50,100a50,50,0,1,1,50-50v50Z" fill="#F7B801"/></svg></g><g transform="translate(261.89,&#xA;                                87.30) rotate(0, 43.648, 43.648)"><svg id="Layer_1" data-name="Layer 1" xmlns="http://www.w3.org/2000/svg" viewBox="0 0 100 100" width="87.296" height="87.296"><path d="M100,100A50,50,0,0,0,0,100Z" fill="#3D348B"/></svg></g><g transform="translate(349.18,&#xA;                                0.00) rotate(0, 43.648, 43.648)"><svg id="Layer_1" data-name="Layer 1" xmlns="http://www.w3.org/2000/svg" viewBox="0 0 100 100" width="87.296" height="87.296"><path d="M100,100A50,50,0,0,0,0,100Z" fill="#3D348B"/></svg></g><g transform="translate(436.48,&#xA;                                0.00) rotate(90, 43.648, 43.648)"><svg id="Layer_1" data-name="Layer 1" xmlns="http://www.w3.org/2000/svg" viewBox="0 0 100 100" width="87.296" height="87.296"><path d="M100,100A50,50,0,0,0,0,100Z" fill="#3D348B"/></svg></g><g transform="translate(349.18,&#xA;                                87.30) rotate(180, 43.648, 43.648)"><svg id="Layer_1" data-name="Layer 1" xmlns="http://www.w3.org/2000/svg" viewBox="0 0 100 100" width="87.296" height="87.296"><circle cx="50" cy="50" r="50" fill="#F18701"/></svg></g><g transform="translate(436.48,&#xA;                                87.30) rotate(270, 43.648, 43.648)"><svg id="Layer_1" data-name="Layer 1" xmlns="http://www.w3.org/2000/svg" viewBox="0 0 100 100" width="87.296" height="87.296"><path d="M100,100A50,50,0,0,0,0,100Z" fill="#3D348B"/></svg></g><g transform="translate(611.07,&#xA;                                0.00) rotate(180, 43.648, 43.648)"><svg id="Layer_1" data-name="Layer 1" xmlns="http://www.w3.org/2000/svg" viewBox="0 0 100 100" width="87.296" height="87.296"><path d="M50,100h0A50,50,0,0,1,0,50V0H100V50A50,50,0,0,1,50,100Z" fill="#7678ED"/></svg></g><g transform="translate(785.66,&#xA;                                0.00) rotate(0, 43.648, 43.648)"><svg id="Layer_1" data-name="Layer 1" xmlns="http://www.w3.org/2000/svg" viewBox="0 0 100 100" width="87.296" height="87.296"><path d="M50,100a50,50,0,1,1,50-50v50Z" fill="#F7B801"/></svg></g><g transform="translate(698.37,&#xA;                                87.30) rotate(0, 43.648, 43.648)"><svg id="Layer_1" data-name="Layer 1" xmlns="http://www.w3.org/2000/svg" viewBox="0 0 100 100" width="87.296" height="87.296"><circle cx="50" cy="50" r="50" fill="#F18701"/></svg></g><g transform="translate(785.66,&#xA;                                87.30) rotate(180, 43.648, 43.648)"><svg id="Layer_1" data-name="Layer 1" xmlns="http://www.w3.org/2000/svg" viewBox="0 0 100 100" width="87.296" height="87.296"><circle cx="50" cy="50" r="50" fill="#F18701"/></svg></g></g><g><g transform="translate(0.00,&#xA;                                261.89) rotate(270, 43.648, 43.648)"><svg id="Layer_1" data-name="Layer 1" xmlns="http://www.w3.org/2000/svg" viewBox="0 0 100 100" width="87.296" height="87.296"><path d="M100,100A50,50,0,0,0,0,100Z" fill="#3D348B"/></svg></g><g transform="translate(174.59,&#xA;                                174.59) rotate(0, 43.648, 43.648)"><svg id="Layer_1" data-name="Layer 1" xmlns="http://www.w3.org/2000/svg" viewBox="0 0 100 100" width="87.296" height="87.296"><circle cx="50" cy="50" r="50" fill="#F18701"/></svg></g><g transform="translate(261.89,&#xA;                                174.59) rotate(0, 43.648, 43.648)"><svg id="Layer_1" data-name="Layer 1" xmlns="http://www.w3.org/2000/svg" viewBox="0 0 100 100" width="87.296" height="87.296"><path d="M50,100a50,50,0,1,1,50-50v50Z" fill="#F7B801"/></svg></g><g transform="translate(174.59,&#xA;                                261.89) rotate(0, 43.648, 43.648)"><svg id="Layer_1" data-name="Layer 1" xmlns="http://www.w3.org/2000/svg" viewBox="0 0 100 100" width="87.296" height="87.296"><path d="M50,100a50,50,0,1,1,50-50v50Z" fill="#F7B801"/></svg></g><g transform="translate(436.48,&#xA;                                174.59) rotate(180, 43.648, 43.648)"><svg id="Layer_1" data-name="Layer 1" xmlns="http://www.w3.org/2000/svg" viewBox="0 0 100 100" width="87.296" height="87.296"><path d="M100,100A50,50,0,0,0,0,100Z" fill="#3D348B"/></svg></g><g transform="translate(349.18,&#xA;                                261.89) rotate(270, 43.648, 43.648)"><svg id="Layer_1" data-name="Layer 1" xmlns="http://www.w3.org/2000/svg" viewBox="0 0 100 100" width="87.296" height="87.296"><circle cx="50" cy="50" r="50" fill="#F18701"/></svg></g><g transform="translate(611.07,&#xA;                                174.59) rotate(180, 43.648, 43.648)"><svg id="Layer_1" data-name="Layer 1" xmlns="http://www.w3.org/2000/svg" viewBox="0 0 100 100" width="87.296" height="87.296"><circle cx="50" cy="50" r="50" fill="#F18701"/></svg></g><g transform="translate(785.66,&#xA;                                174.59) rotate(90, 43.648, 43.648)"><svg id="Layer_1" data-name="Layer 1" xmlns="http://www.w3.org/2000/svg" viewBox="0 0 100 100" width="87.296" height="87.296"><circle cx="50" cy="50" r="50" fill="#F18701"/></svg></g><g transform="translate(698.37,&#xA;                                261.89) rotate(90, 43.648, 43.648)"><svg id="Layer_1" data-name="Layer 1" xmlns="http://www.w3.org/2000/svg" viewBox="0 0 100 100" width="87.296" height="87.296"><path d="M50,100a50,50,0,1,1,50-50v50Z" fill="#F7B801"/></svg></g><g transform="translate(785.66,&#xA;                                261.89) rotate(180, 43.648, 43.648)"><svg id="Layer_1" data-name="Layer 1" xmlns="http://www.w3.org/2000/svg" viewBox="0 0 100 100" width="87.296" height="87.296"><path d="M100,100A50,50,0,0,0,0,100Z" fill="#3D348B"/></svg></g></g><g><g transform="translate(87.30,&#xA;                                349.18) rotate(90, 43.648, 43.648)"><svg id="Layer_1" data-name="Layer 1" xmlns="http://www.w3.org/2000/svg" viewBox="0 0 100 100" width="87.296" height="87.296"><path d="M50,100a50,50,0,1,1,50-50v50Z" fill="#F7B801"/></svg></g><g transform="translate(0.00,&#xA;                                436.48) rotate(90, 43.648, 43.648)"><svg id="Layer_1" data-name="Layer 1" xmlns="http://www.w3.org/2000/svg" viewBox="0 0 100 100" width="87.296" height="87.296"><path d="M50,100a50,50,0,1,1,50-50v50Z" fill="#F7B801"/></svg></g><g transform="translate(87.30,&#xA;                                436.48) rotate(0, 43.648, 43.648)"><svg id="Layer_1" data-name="Layer 1" xmlns="http://www.w3.org/2000/svg" viewBox="0 0 100 100" width="87.296" height="87.296"><circle cx="50" cy="50" r="50" fill="#F18701"/></svg></g><g transform="translate(261.89,&#xA;                                349.18) rotate(180, 43.648, 43.648)"><svg id="Layer_1" data-name="Layer 1" xmlns="http://www.w3.org/2000/svg" viewBox="0 0 100 100" width="87.296" height="87.296"><path d="M50,100h0A50,50,0,0,1,0,50V0H100V50A50,50,0,0,1,50,100Z" fill="#7678ED"/></svg></g><g transform="translate(174.59,&#xA;                                436.48) rotate(90, 43.648, 43.648)"><svg id="Layer_1" data-name="Layer 1" xmlns="http://www.w3.org/2000/svg" viewBox="0 0 100 100" width="87.296" height="87.296"><circle cx="50" cy="50" r="50" fill="#F18701"/></svg></g><g transform="translate(349.18,&#xA;                                349.18) rotate(90, 43.648, 43.648)"><svg id="Layer_1" data-name="Layer 1" xmlns="http://www.w3.org/2000/svg" viewBox="0 0 100 100" width="87.296" height="87.296"><path d="M100,100A50,50,0,0,0,0,100Z" fill="#3D348B"/></svg></g><g transform="translate(349.18,&#xA;                                436.48) rotate(180, 43.648, 43.648)"><svg id="Layer_1" data-name="Layer 1" xmlns="http://www.w3.org/2000/svg" viewBox="0 0 100 100" width="87.296" height="87.296"><path d="M100,100A50,50,0,0,0,0,100Z" fill="#3D348B"/></svg></g><g transform="translate(611.07,&#xA;                                349.18) rotate(270, 43.648, 43.648)"><svg id="Layer_1" data-name="Layer 1" xmlns="http://www.w3.org/2000/svg" viewBox="0 0 100 100" width="87.296" height="87.296"><circle cx="50" cy="50" r="50" fill="#F18701"/></svg></g><g transform="translate(523.78,&#xA;                                436.48) rotate(0, 43.648, 43.648)"><svg id="Layer_1" data-name="Layer 1" xmlns="http://www.w3.org/2000/svg" viewBox="0 0 100 100" width="87.296" height="87.296"><path d="M50,100a50,50,0,1,1,50-50v50Z" fill="#F7B801"/></svg></g><g transform="translate(611.07,&#xA;                                436.48) rotate(270, 43.648, 43.648)"><svg id="Layer_1" data-name="Layer 1" xmlns="http://www.w3.org/2000/svg" viewBox="0 0 100 100" width="87.296" height="87.296"><path d="M100,100A50,50,0,0,0,0,100Z" fill="#3D348B"/></svg></g><g transform="translate(698.37,&#xA;                                349.18) rotate(270, 43.648, 43.648)"><svg id="Layer_1" data-name="Layer 1" xmlns="http://www.w3.org/2000/svg" viewBox="0 0 100 100" width="87.296" height="87.296"><path d="M50,100h0A50,50,0,0,1,0,50V0H100V50A50,50,0,0,1,50,100Z" fill="#7678ED"/></svg></g><g transform="translate(785.66,&#xA;                                349.18) rotate(270, 43.648, 43.648)"><svg id="Layer_1" data-name="Layer 1" xmlns="http://www.w3.org/2000/svg" viewBox="0 0 100 100" width="87.296" height="87.296"><path d="M50,100a50,50,0,1,1,50-50v50Z" fill="#F7B801"/></svg></g><g transform="translate(698.37,&#xA;                                436.48) rotate(0, 43.648, 43.648)"><svg id="Layer_1" data-name="Layer 1" xmlns="http://www.w3.org/2000/svg" viewBox="0 0 100 100" width="87.296" height="87.296"><path d="M100,100A50,50,0,0,0,0,100Z" fill="#3D348B"/></svg></g></g></svg>